<?xml version="1.0" encoding="UTF-8" standalone="no"?><!DOCTYPE svg PUBLIC "-//W3C//DTD SVG 1.1//EN" "http://www.w3.org/Graphics/SVG/1.1/DTD/svg11.dtd"><svg width="100%" height="100%" viewBox="0 0 362 224" version="1.1" xmlns="http://www.w3.org/2000/svg" xmlns:xlink="http://www.w3.org/1999/xlink" xml:space="preserve" xmlns:serif="http://www.serif.com/" style="fill-rule:evenodd;clip-rule:evenodd;stroke-linecap:round;stroke-linejoin:round;stroke-miterlimit:1.5;"><g opacity="0.7"><path d="M67.621,222.37l291.898,-121.467" style="fill:none;stroke:#98979d;stroke-width:3.13px;"/><path d="M359.519,50.527l-276.362,0" style="fill:none;stroke:#98979d;stroke-width:3.13px;"/><path d="M77.508,222.37l35.31,-220.807l51.788,220.807" style="fill:none;stroke:#98979d;stroke-width:3.13px;"/><text x="165.746px" y="40.96px" style="font-family:'Sora-Thin', 'Sora';font-weight:250;font-size:13.5px;fill:#98979d;">Colomos</text><g transform="matrix(0.341144,-0.940011,0.940011,0.341144,-2015.39,-427.374)"><text x="134.823px" y="2104.33px" style="font-family:'Sora-Thin', 'Sora';font-weight:250;font-size:13.5px;fill:#98979d;">Pro<tspan x="156.963px " y="2104.33px ">v</tspan>idencia</text></g><g transform="matrix(0.923407,-0.383821,0.383821,0.923407,-89.9683,-573.274)"><text x="-33.987px" y="819.088px" style="font-family:'Sora-Thin', 'Sora';font-weight:250;font-size:13.5px;fill:#98979d;">José María V<tspan x="49.929px " y="819.088px ">i</tspan>gil</text></g><g transform="matrix(0.166233,-0.986086,0.986086,0.166233,-2305.29,198.39)"><text x="412.066px" y="2342.71px" style="font-family:'Sora-Thin', 'Sora';font-weight:250;font-size:13.5px;fill:#98979d;">López Mat<tspan x="479.769px " y="2342.71px ">e</tspan>os</text></g><g transform="matrix(-0.221131,-0.975244,0.975244,-0.221131,-2217.65,1785.36)"><text x="1051.5px" y="2658.53px" style="font-family:'Sora-Thin', 'Sora';font-weight:250;font-size:13.5px;fill:#98979d;">A<tspan x="1061.27px 1067.81px " y="2658.53px 2658.53px ">v.</tspan> Américas</text></g><path d="M270.896,50.527l18.102,80.48l50.889,-21.935l-15.093,-58.545l-53.898,0Z" style="fill:#98979d;"/></g></svg>